<?xml version="1.0" standalone="no"?>
<!DOCTYPE svg PUBLIC "-//W3C//DTD SVG 20010904//EN"
 "http://www.w3.org/TR/2001/REC-SVG-20010904/DTD/svg10.dtd">
<svg version="1.0" xmlns="http://www.w3.org/2000/svg"
 width="300.000000pt" height="54.000000pt" viewBox="0 0 300.000000 54.000000"
 preserveAspectRatio="xMidYMid meet">
<metadata>
Created by potrace 1.10, written by Peter Selinger 2001-2011
</metadata>
<g transform="translate(0.000000,54.000000) scale(0.100000,-0.100000)"
fill="#000000" stroke="none">
<path d="M2796 513 c-2 -10 -16 -87 -31 -170 l-27 -153 32 -40 32 -41 67 3
c60 3 66 5 69 26 3 20 -1 22 -36 22 -59 0 -64 11 -45 118 l17 92 53 0 c29 0
53 4 53 9 0 5 3 16 6 25 5 13 -3 16 -46 16 l-53 0 7 55 6 55 -49 0 c-39 0 -51
-4 -55 -17z"/>
<path d="M66 408 c-2 -7 -15 -76 -28 -153 l-24 -140 143 -3 144 -3 47 41 48
40 17 107 c10 60 17 111 17 116 0 4 -81 7 -180 7 -136 0 -182 -3 -184 -12z
m254 -45 c0 -5 -7 -46 -15 -93 -10 -55 -21 -89 -32 -97 -22 -17 -143 -17 -143
-1 0 6 7 54 17 105 l16 93 79 0 c43 0 78 -3 78 -7z"/>
<path d="M470 395 c0 -23 3 -25 49 -25 44 0 49 2 53 25 5 24 3 25 -48 25 -51
0 -54 -1 -54 -25z"/>
<path d="M642 382 c-44 -39 -51 -60 -76 -229 l-6 -43 105 0 105 0 0 25 c0 23
-3 25 -50 25 -47 0 -50 2 -46 22 3 13 10 55 17 93 6 40 18 75 27 83 9 7 45 12
85 12 60 0 68 -2 63 -17 -3 -10 -15 -74 -27 -143 -12 -69 -26 -131 -31 -137
-7 -9 -47 -13 -133 -13 -118 0 -123 -1 -128 -22 -4 -12 -5 -23 -4 -25 2 -1 67
-3 146 -4 l142 -1 45 38 45 39 29 165 c17 90 30 166 30 167 0 2 -66 3 -147 3
l-148 -1 -43 -37z"/>
<path d="M1016 404 c-12 -31 -6 -35 47 -32 45 3 52 6 55 26 3 20 0 22 -46 22
-36 0 -52 -4 -56 -16z"/>
<path d="M1160 418 c-1 -2 -13 -72 -29 -155 l-27 -153 145 0 146 1 46 42 47
42 19 113 19 112 -183 0 c-101 0 -183 -1 -183 -2z m250 -62 c0 -34 -31 -170
-41 -182 -15 -18 -149 -20 -149 -2 0 6 7 54 17 105 l16 93 79 0 c60 0 78 -3
78 -14z"/>
<path d="M1593 382 c-41 -35 -43 -41 -58 -127 -8 -50 -18 -102 -21 -118 l-6
-27 186 0 186 0 0 25 0 25 -131 0 c-119 0 -130 1 -125 18 5 16 26 140 26 154
0 4 7 14 16 22 11 12 35 16 86 16 60 0 69 -2 64 -16 -3 -9 -6 -23 -6 -32 0
-32 -19 -46 -67 -51 -43 -5 -48 -9 -51 -33 -3 -28 -3 -28 56 -28 55 0 63 3
110 41 38 32 52 49 56 78 4 20 9 48 12 64 l6 27 -149 0 -148 -1 -42 -37z"/>
<path d="M1997 378 l-45 -43 -26 -151 c-14 -83 -26 -157 -26 -163 0 -7 19 -11
50 -11 48 0 49 1 55 32 36 206 56 302 66 314 16 20 149 20 149 0 0 -34 -31
-170 -41 -182 -7 -8 -30 -14 -55 -14 -24 0 -44 -4 -44 -9 0 -5 -3 -16 -6 -25
-5 -14 4 -16 62 -16 67 0 70 2 116 43 l46 42 19 113 19 112 -147 0 -147 0 -45
-42z"/>
<path d="M2403 382 c-39 -35 -42 -42 -57 -127 -9 -50 -19 -102 -22 -118 l-6
-27 146 0 146 0 42 37 c24 21 44 38 45 38 2 1 10 42 18 91 8 49 18 101 21 117
l6 27 -149 0 -148 -1 -42 -37z m221 -44 c-30 -176 -31 -178 -126 -178 -61 0
-69 2 -64 18 3 9 10 49 17 87 16 95 26 105 110 105 l69 0 -6 -32z"/>
<path d="M455 308 c-5 -16 -35 -177 -35 -190 0 -5 23 -8 52 -6 l52 3 16 98 c9
54 14 100 11 102 -10 11 -92 4 -96 -7z"/>
<path d="M994 283 c-3 -21 -12 -68 -19 -105 l-12 -68 52 0 52 0 16 93 c10 51
17 99 17 105 0 8 -18 12 -50 12 -49 0 -49 0 -56 -37z"/>
</g>
</svg>
